# xmcd
#
# Track frame offsets:
#	150
#	35910
#	59113
#	79669
#	102279
#	132752
#	153391
#	177674
#
# Disc length: 3240 seconds
#
# Revision: 1
# Processed by: cddbd v1.5.2PL0 Copyright (c) Steve Scherf et al.
# Submitted via: EasyCDDAExtractor 9.0.0.1
#
DISCID=6f0ca608
DTITLE=Glenn Hughes - Virgin Oil Co Helsinki 10-11-06 Disc 1
DYEAR=2006
DGENRE=Hard Rock
TTITLE0=Valiant Denial
TTITLE1=Monkey Man
TTITLE2=Orion
TTITLE3=Land Of The Livin' (Wonderland)
TTITLE4=Nights In White Satin
TTITLE5=Black Light
TTITLE6=Guitar Prelude To Mistreated
TTITLE7=Mistreated
EXTD=
EXTT0=
EXTT1=
EXTT2=
EXTT3=
EXTT4=
EXTT5=
EXTT6=
EXTT7=
PLAYORDER=
